<?xml version="1.0" encoding="UTF-8"?>
<svg id="Layer_1" data-name="Layer 1" xmlns="http://www.w3.org/2000/svg" width="685" height="471.09" viewBox="0 0 685 471.09">
  <path d="M389.66,61.28l51.97-29.47,50.14,.86,53.72,30.83,24.94,45.49-5.4,57.83-28.3,39.31-45.73,34-48.45-.04-50.6-31.63-25.25-43.57-3.32-58.1,26.28-45.5Zm72.99,56.16c-4.87,.94-8.35,2.87-11.52,6.08l-55.73-56.36c-6.26-6.89-14.75-16.28-21.64-16.28-9.39,0-28.84,33.81-28.84,41.95,0,5.01,.38,8.77,13.53,12.52l87.85,26.2c-1.3,4.13-1.21,8.47-.11,11.86l-90.87,24.55c-5.64,1.25-12.49,6.86-12.49,13.12,0,5.64,17.5,40.73,29.4,40.73,5.64,0,11.9-6.26,13.78-7.51l65.37-62.24c3.91,3.53,7.14,5.01,11.02,5.62l-21.92,91.06c-.63,1.88-1.25,5.64-1.25,8.14,0,7.51,5.01,9.66,31.31,9.66,18.16,0,23.79-1.52,23.79-10.28,0-2.5-.63-5.64-1.25-7.51l-21.91-91.34c3.4-.83,6.77-2.34,10.32-6.04l65.45,64.82c3.13,3.13,5.91,7.51,10.92,7.51,10.02,0,31.66-35.04,31.66-42.55,0-7.51-8.14-9.42-20.66-13.18l-82.45-25.47c.01-.53,1.6-4.25-.3-10.85l85.88-23.17c14.4-3.76,17.53-7.51,17.53-13.78,0-3.13-15.37-41.61-27.9-41.61-5.01,0-10.3,4.66-14.68,9.05l-65.05,61.92c-3.97-4.32-7.85-5.64-10.71-6.35l21.92-88.75c.63-2.5,1.88-4.66,1.88-7.79,0-8.77-5.01-12.52-24.42-12.52-23.17,0-31.31,.63-31.31,10.02,0,3.76,1.25,7.16,1.25,8.42l22.17,90.35Z"/>
  <path d="M99.04,223.97v57.75h29.91v19.35H64.88v-77.1h34.15Z"/>
  <path d="M171.07,223.97v77.1h-34.1v-77.1h34.1Z"/>
  <path d="M215.81,223.97v57.75h29.91v19.35h-64.06v-77.1h34.15Z"/>
  <path d="M287.12,222.76c7.28,0,13.96,1.79,20.06,5.36,6.1,3.57,10.86,8.39,14.3,14.45,3.47,6.03,5.2,12.66,5.2,19.91s-1.74,13.88-5.2,20.01c-3.44,6.13-8.2,10.98-14.3,14.55-6.13,3.54-12.82,5.3-20.06,5.3s-13.91-1.77-20.01-5.3c-6.03-3.5-10.8-8.34-14.3-14.5-3.47-6.13-5.2-12.82-5.2-20.06s1.7-13.67,5.1-19.81c3.4-6.06,8.17-10.9,14.3-14.5,6.13-3.6,12.83-5.41,20.11-5.41Zm-7.63,37.64c0,2.43,.72,4.38,2.17,5.86,1.48,1.48,3.3,2.22,5.46,2.22s3.97-.74,5.46-2.22c1.48-1.55,2.22-3.5,2.22-5.86,0-1.18-.19-2.27-.58-3.26-.39-.99-.92-1.84-1.59-2.55-.67-.71-1.49-1.26-2.45-1.67s-2-.61-3.11-.61c-2.16,0-3.96,.76-5.41,2.27-1.45,1.48-2.17,3.42-2.17,5.81Z"/>
  <path d="M342.1,285.01c0-2.26,.43-4.4,1.29-6.42,.86-2.02,2.04-3.77,3.54-5.25,1.5-1.48,3.24-2.66,5.23-3.54,1.99-.88,4.11-1.31,6.37-1.31s4.4,.44,6.42,1.31c2.02,.88,3.77,2.05,5.25,3.54,1.48,1.48,2.66,3.23,3.54,5.25,.88,2.02,1.31,4.16,1.31,6.42s-.44,4.38-1.31,6.37c-.88,1.99-2.05,3.73-3.54,5.23-1.48,1.5-3.23,2.68-5.25,3.54-2.02,.86-4.16,1.29-6.42,1.29s-4.38-.43-6.37-1.29c-1.99-.86-3.73-2.04-5.23-3.54-1.5-1.5-2.68-3.24-3.54-5.23-.86-1.99-1.29-4.11-1.29-6.37Z"/>
  <g>
    <path d="M191.4,322.88l-55.81,90.87h53.03v30.45H60.85l55.81-90.87h-51.28v-30.45h126.01Z"/>
    <path d="M261.26,320.98c11.45,0,21.97,2.81,31.56,8.43,9.59,5.62,17.09,13.2,22.5,22.74,5.46,9.49,8.19,19.93,8.19,31.32s-2.73,21.84-8.19,31.48c-5.41,9.65-12.91,17.28-22.5,22.9-9.65,5.56-20.17,8.35-31.56,8.35s-21.89-2.78-31.48-8.35c-9.49-5.51-16.99-13.12-22.5-22.82-5.46-9.65-8.19-20.17-8.19-31.56s2.68-21.52,8.03-31.16c5.35-9.54,12.85-17.15,22.5-22.82,9.65-5.67,20.19-8.51,31.64-8.51Zm-12.01,59.23c0,3.82,1.14,6.89,3.42,9.22,2.33,2.33,5.19,3.5,8.59,3.5s6.25-1.17,8.59-3.5c2.33-2.44,3.5-5.51,3.5-9.22,0-1.86-.31-3.57-.91-5.13-.61-1.56-1.45-2.9-2.5-4.01-1.06-1.11-2.35-1.99-3.86-2.62-1.51-.64-3.14-.95-4.89-.95-3.39,0-6.23,1.19-8.51,3.58-2.28,2.33-3.42,5.38-3.42,9.14Z"/>
    <path d="M380.33,322.88l27.99,40.55h.32v-40.55h53.74v122.28h-40.71l-25.76-37.76h-.32v36.81h-53.66v-121.32h38.4Z"/>
    <path d="M585.91,322.88v30.45h-47.07v15.03h32.75v30.45h-32.75v14.95h47.07v30.45h-100.73v-121.32h100.73Z"/>
  </g>
</svg>