<?xml version="1.0" encoding="UTF-8"?>
<svg id="Layer_1" data-name="Layer 1" xmlns="http://www.w3.org/2000/svg" width="289.3" height="286.7" viewBox="0 0 289.3 286.7">
  <defs>
    <style>
      .cls-1 {
        fill: #fff;
      }
    </style>
  </defs>
  <path class="cls-1" d="M67.55,63.46l51.97-29.47,50.14,.86,53.72,30.83,24.94,45.49-5.4,57.83-28.3,39.31-45.73,34-48.45-.04-50.6-31.63-25.25-43.57-3.32-58.1,26.28-45.5Zm73.19,56.44c-5.92,1.25-9.47,4.3-11.35,6.18l-56.11-56.73c-6.26-6.89-14.75-16.28-21.64-16.28-9.39,0-28.84,33.81-28.84,41.95,0,5.01,.38,8.77,13.53,12.52l88.6,25.99c-.87,4.62-1,7.83-.37,11.58l-91.36,25.05c-5.64,1.25-12.49,6.86-12.49,13.12,0,5.64,17.5,40.73,29.4,40.73,5.64,0,11.9-6.26,13.78-7.51l65.7-62.57c4.31,3.14,6.81,4.98,10.69,5.59l-21.92,91.42c-.63,1.88-1.25,5.64-1.25,8.14,0,7.51,5.01,9.66,31.31,9.66,18.16,0,23.79-1.52,23.79-10.28,0-2.5-.63-5.64-1.25-7.51l-21.91-91.42c3.85-.78,7.13-2.89,10.26-6.02l65.5,64.88c3.13,3.13,5.91,7.51,10.92,7.51,10.02,0,31.66-35.04,31.66-42.55,0-7.51-8.14-9.42-20.66-13.18l-82.03-25.05c0-1.25,1.03-7.38-.55-11.27l85.71-23.17c14.4-3.76,17.53-7.51,17.53-13.78,0-3.13-15.37-41.61-27.9-41.61-5.01,0-10.3,4.66-14.68,9.05l-65.05,61.92c-3.76-4.38-6.95-4.94-10.71-6.19l21.92-88.92c.63-2.5,1.88-4.66,1.88-7.79,0-8.77-5.01-12.52-24.42-12.52-23.17,0-31.31,.63-31.31,10.02,0,3.76,1.25,7.16,1.25,8.42l22.37,90.63Z"/>
</svg>